PathFileType	4	(X/Y/Z)	Patient4_TMGait_0pt7_02_right_09.trc.trc
DataRate	CameraRate	NumFrames	NumMarkers	Units	OrigDataRate	OrigDataStartFrame	OrigNumFrames
89.171974522293	89.171974522293	6	33	mm	89.171974522293	18	       141
Frame#	Time	Sacral			L.Shoulder			Chest			R.Shoulder			Neck			R.ASIS			L.ASIS			R.Thigh.Superior			R.Thigh.Lateral			R.Thigh.Inferior			R.Patella			L.Thigh.Superior			L.Thigh.Lateral			L.Thigh.Inferior			L.Patella			L.Shank.Superior			L.Shank.Lateral			L.Shank.Inferior			R.Shank.Superior			R.Shank.Lateral			R.Shank.Inferior			R.Heel			R.Midfoot.Superior			R.Midfoot.Lateral			R.Toe			L.Heel			L.Midfoot.Lateral			L.Midfoot.Superior			L.Toe			L.Elbow			L.Wrist			R.Elbow			R.Wrist			
		X1	Y1	Z1	X2	Y2	Z2	X3	Y3	Z3	X4	Y4	Z4	X5	Y5	Z5	X6	Y6	Z6	X7	Y7	Z7	X8	Y8	Z8	X9	Y9	Z9	X10	Y10	Z10	X11	Y11	Z11	X12	Y12	Z12	X13	Y13	Z13	X14	Y14	Z14	X15	Y15	Z15	X16	Y16	Z16	X17	Y17	Z17	X18	Y18	Z18	X19	Y19	Z19	X20	Y20	Z20	X21	Y21	Z21	X22	Y22	Z22	X23	Y23	Z23	X24	Y24	Z24	X25	Y25	Z25	X26	Y26	Z26	X27	Y27	Z27	X28	Y28	Z28	X29	Y29	Z29	X30	Y30	Z30	X31	Y31	Z31	X32	Y32	Z32	X33	Y33	Z33	

18	9.550642857143	746.430437198168	1010.948058226238	445.417372042500	984.239495473939	1422.134783895406	269.056236002397	1062.804696182708	1342.548650934420	438.907990969072	972.658364300398	1431.908439764667	601.165291411012	978.407516284603	1482.876117459255	420.213851141673	961.531480493159	937.978171545862	578.337064168163	965.884221847045	950.376047327389	303.080918260879	1043.003868821750	782.461282037976	551.789281030832	1011.726777829715	658.266579806962	628.904187410814	1104.021308012900	626.899700803349	550.536876207775	1144.750758930971	541.731231668846	571.379668779102	967.464418830730	729.548661427372	331.503497037313	853.242649710010	635.325593000196	266.771257217165	912.874513689385	541.783357786295	331.710461124699	897.893568493865	476.630006433002	341.427684620661	866.903172353583	410.304552624339	333.172486185847	767.133230978874	304.314990578420	283.184532976170	806.361750271839	189.810571903562	356.330937278717	1124.837345836428	450.589359468810	580.527447690864	1067.050930317279	340.023324124149	645.575912783342	1131.300248549995	250.430338422639	594.604412754176	1031.484158823657	65.563603751383	570.185213352167	1196.313707905401	138.035759661030	606.998367349889	1118.220189324951	59.887590550748	639.488434990162	1320.606967012495	99.114440418880	626.755175722455	668.635130042797	39.380754523502	402.289743412963	740.027035471808	35.427991225248	319.587069224152	824.508515891262	95.125518901770	344.397520248396	952.085044404920	40.867517656920	312.236737730698	1034.853685790201	1096.879101578096	124.070658318314	1284.260232615115	1076.063075044883	173.624654334726	815.363236035824	1127.842055937004	723.916791240815	779.135727885007	869.183214766425	754.992500878703	
19	9.561857142857	748.229746669489	1008.595759101412	447.424294409747	983.365798623108	1421.022576177420	270.874540305483	1062.946385958082	1341.463777513882	440.153394377907	973.205531133398	1430.404889543723	602.909817987204	977.944712422365	1481.381384951297	421.878910787512	963.846141025761	935.585759837336	579.486636801790	967.247058909752	948.754311717815	304.382520842943	1042.843277996125	777.130229488360	553.266779417236	1008.822599052400	653.220408433711	630.001070185303	1100.681780980880	620.963081488670	551.353558580708	1140.227304879657	537.428173919271	571.174037971291	966.837817663839	727.643691456976	332.014318126170	851.160252757482	634.534360600162	267.487896128063	909.735876599262	540.344278027079	332.202808853986	894.068202556391	475.041052665339	341.927272744051	862.404869444465	409.014843399086	333.648786765344	761.425265031816	304.093093114155	283.655651002453	799.362037134918	189.081574703512	356.640869876199	1122.941635317640	446.590902334728	580.944671438705	1068.317283729380	334.165543440371	645.629668988335	1135.883576235514	246.628233160245	594.719317140943	1042.136644180083	58.715233515953	569.603266204181	1204.874702171356	135.576017143550	606.785221068783	1128.868801223524	55.405156767773	639.144522818157	1330.362998592671	100.184554011483	627.006800927689	660.720787932720	39.206562239314	402.341978062680	732.108909610645	35.349783721935	319.633723229432	816.583994464583	95.034954756817	344.529728636631	944.171715092449	40.772770004033	312.228462433194	1037.255560164803	1097.135678278245	125.041442392814	1286.170130574939	1087.720903403977	177.296579479348	811.331671439274	1129.910710515616	725.977051582612	769.166711337212	872.341811471349	755.955449182992	
20	9.573071428571	750.200926340577	1006.101082230156	449.710430237811	982.343881808131	1419.794782082679	272.810843496439	1063.132924011994	1340.368143475373	441.475045435647	973.805223904667	1428.841374439141	604.796037798426	977.427772137795	1479.786105563283	423.677947329890	966.443402605362	933.062607895788	580.744241638912	968.746995687296	947.029455076567	305.854541156243	1043.184334216576	771.825818396809	554.852068931839	1006.307076751937	648.196521739371	630.985304997523	1097.791937109605	615.171247853191	552.115152323678	1135.916884194657	532.873075156869	570.898131158568	966.551857253423	725.651054132252	332.703250698737	849.521795692150	633.587406647097	268.403759677016	907.152874453001	538.772421641321	332.872339708788	890.849516035135	473.225703619951	342.589544474529	858.366842019118	407.508971843398	334.281447467314	756.017063283563	303.836550532642	284.238902015838	792.475978034930	188.250525205576	357.001509000066	1120.764292991564	442.270501897664	581.195940899162	1068.414398894241	328.450177842504	645.290951913913	1138.600656995617	242.640330763792	594.466510572325	1049.432903567608	52.994370166644	568.515618005414	1210.591646314292	132.589191531574	606.082857102038	1135.982429817225	51.352518359119	638.396822384670	1336.826074832243	99.542605579228	626.941980114007	652.780925351327	38.987503535255	402.370663650687	724.195667768117	35.221063144560	319.677199219965	808.666034170862	94.926856811603	344.664788411830	936.284267666519	40.677440229379	312.211982260774	1039.107720977034	1097.104115003128	126.160820571098	1287.068055281962	1098.259228231482	180.975218108841	807.614822370391	1131.906653379397	728.199390571620	760.727136529588	875.268926523905	756.677554382615	
21	9.584285714286	752.299178430184	1003.533967044485	452.254869173832	981.227845329033	1418.473049404871	274.864719257021	1063.388209708182	1339.279496288697	442.892764038270	974.460806001543	1427.242165998423	606.829557498225	976.894357646728	1478.127429558910	425.621763764503	969.262595069894	930.471898978313	582.115428603050	970.351092931782	945.258820682212	307.491394071801	1044.079275144219	766.721301492527	556.519970747983	1004.291016520150	643.347057787069	631.804091181138	1095.498018602277	609.721579579253	552.813260117496	1132.000951227679	528.219382518618	570.548039647766	966.640096892251	723.597491123418	333.591071777150	848.385551131390	632.474840378230	269.543479665994	905.219391838966	537.061554495030	333.736978323456	888.352601931366	471.162362217738	343.413600253029	854.860432550237	405.776904923265	335.080015517259	750.966870847641	303.568507494478	284.941892052971	785.742536328126	187.337732950790	357.401250349227	1118.471872027220	437.763421886942	581.248860552665	1067.531754258398	322.973798008541	644.600236093894	1139.599160281648	238.498730624611	593.850075283413	1053.379944120631	48.407262606400	567.051020466518	1213.602550825478	129.043929685430	604.895324496250	1139.640144605065	47.724782925204	637.326440448405	1340.171702792756	97.067444907650	626.481665251883	644.809784807077	38.777186075748	402.355899834337	716.287675770170	35.054605499780	319.708697713713	800.773941140331	94.803170085332	344.785976090634	928.428231117293	40.578556607332	312.183612989255	1040.364715865674	1096.761984258213	127.430847045723	1287.029664136953	1107.589891731596	184.624475296186	804.335028556945	1133.716127317581	730.548184983118	753.686953648728	877.821791323935	757.270938801030	
22	9.595500000000	754.466695910426	1000.980992607800	455.024258329164	980.086825273249	1417.090697976617	277.032891353930	1063.740030047525	1338.218730136744	444.425174023335	975.187903569551	1425.643211867169	609.010329608568	976.398106726561	1476.456012251840	427.718781292326	972.233203739817	927.897849835773	583.608919480915	972.019336143937	943.510514218372	309.282821939403	1045.543294283760	761.982729199771	558.245160994749	1002.859954316753	638.825985846144	632.430545386758	1093.908895835529	604.791928247421	553.447019650959	1128.641478866709	523.637418419362	570.118997492420	967.128695666885	721.528249537966	334.688001197649	847.805062495761	631.198464627033	270.925448543900	904.035621048360	535.220505656464	334.803390638861	886.698117040524	468.841687959139	344.383404545469	851.963156289807	403.827162562836	336.040592749729	746.340219127409	303.332734100508	285.766914554400	779.212996180641	186.385115812855	357.820223474528	1116.235925773216	433.235435788920	581.089143469564	1065.929557499702	317.859347483384	643.643060617590	1139.117489602567	234.288772598455	592.906227961173	1054.180286520083	44.926140520934	565.373949663736	1214.174332004958	125.011574276926	603.280707877063	1140.113344058665	44.547563213531	636.050708375499	1340.715967065967	92.849477930582	625.597431929471	636.810080464554	38.670440091057	402.276496813821	708.388501397519	34.886267837209	319.716909655717	792.940055041565	94.671668494398	344.870057744711	920.607108329239	40.469847533775	312.140004226887	1040.980204581968	1096.095978310687	128.858744301589	1286.133441167209	1115.640710992025	188.213197518409	801.618505143158	1135.230365434574	732.983881959311	747.947024602970	879.895948676711	757.836069637011	
23	9.606714285714	756.637261274214	998.540427704246	457.975914833539	979.000198294541	1415.694434433475	279.308273030020	1064.215941432326	1337.211736755565	446.086753566698	976.011793674667	1424.092780695377	611.330978127563	976.004253400993	1474.835412983575	429.972173697624	975.278967796594	925.443095418711	585.236283600889	973.705303996221	941.859785043665	311.214477520556	1047.549910033778	757.764626674242	560.003007650336	1002.073689708793	634.787300372575	632.873630353411	1093.083499145067	600.532087444293	554.023680634366	1125.966169819079	519.308334487016	569.615772115924	968.032918745142	719.507908094757	335.996060608733	847.829663804830	629.774053564468	272.557889655023	903.706916870492	533.276436973491	336.064939126418	886.009618853788	466.272120433289	345.465603553134	849.760927778764	401.690117744146	337.142913266809	742.212185022986	303.196510062269	286.709292905084	772.953439579158	185.458980612044	358.231312852995	1114.215911061466	428.872473169595	580.729202774936	1063.906899730826	313.247562934295	642.545489237234	1137.454125562615	230.142557858873	591.703417595432	1052.206966105462	42.481664932612	563.658708092823	1212.663831456684	120.661734303207	601.351553184281	1137.831170187141	41.862603535428	634.705422921418	1338.875233051931	87.197094271817	624.326100615267	628.798827495493	38.809690448250	402.112901315486	700.507557599631	34.782213934357	319.689335987648	785.212454844368	94.548719389836	344.888496955097	912.820764437044	40.340767770935	312.078949177173	1040.906201836720	1095.106227211493	130.457498967143	1284.458092188882	1122.352488490478	191.715329441021	799.589791118651	1136.353954862624	735.466118441147	743.452434276555	881.419058753984	758.453170656681	
